<svg xmlns="http://www.w3.org/2000/svg" xmlns:ev="http://www.w3.org/2001/xml-events" xmlns:xlink="http://www.w3.org/1999/xlink" width="461.195" height="823.363" class="st15" color-interpolation-filters="sRGB" viewBox="0 0 345.896 617.522" xml:space="preserve"><style type="text/css">.st1{visibility:visible}.st2{fill:#5b9bd5;fill-opacity:.22;filter:url(#filter_2);stroke:#5b9bd5;stroke-opacity:.22}.st3{fill:#deebf6;stroke:#323849;stroke-width:.25}.st4{fill:#323849;font-family:Calibri;font-size:.833336em}.st5,.st6{fill:none;stroke:#000;stroke-width:.75}.st6{stroke:none;stroke-width:.25}.st7{fill:#323849;font-family:Calibri;font-size:1.00001em}.st8{fill:#deebf6;stroke:#c7c8c8;stroke-width:.25}.st9{fill:#323849;font-family:Calibri;font-size:.75em}.st10{fill:none;stroke:#323849;stroke-width:.75}.st11,.st12{fill:#323849;font-family:Calibri;font-size:.666664em}.st12{font-size:.499992em}.st13{fill:#deebf6;stroke:none;stroke-width:.25}.st14{font-size:1em}.st15{fill:none;fill-rule:evenodd;font-size:12px;overflow:visible;stroke-linecap:square;stroke-miterlimit:3}</style><defs id="Filters"><filter id="filter_2"><feGaussianBlur stdDeviation="2"/></filter></defs><g><title>Overview</title><g id="shape1-1" transform="translate(25.2651,-395.391)"><title>Rectangle</title><desc>Socket API</desc><g id="shadow1-2" class="st1" transform="matrix(1,0,0,1,0.345598,1.97279)"><rect width="264.434" height="28.689" x="0" y="588.833" class="st2"/></g><rect width="264.434" height="28.689" x="0" y="588.833" class="st3"/><text x="110.87" y="606.18" class="st4">Socket API</text></g><g id="shape57-7" transform="translate(25.2651,-212.311)"><title>Rectangle.57</title><desc>Network Interface Abstraction</desc><g id="shadow57-8" class="st1" transform="matrix(1,0,0,1,0.345598,1.97279)"><rect width="264.434" height="28.689" x="0" y="588.833" class="st2"/></g><rect width="264.434" height="28.689" x="0" y="588.833" class="st3"/><text x="70.53" y="606.18" class="st4">Network Interface Abstraction</text></g><g id="shape60-13" transform="translate(-327.858,369.021) rotate(-90)"><title>Rectangle.60</title><desc>Non-IP sockets</desc><g id="shadow60-14" class="st1" transform="matrix(1,0,0,1,-1.97279,0.345598)"><rect width="140.864" height="28.689" x="0" y="588.833" class="st2"/></g><rect width="140.864" height="28.689" x="0" y="588.833" class="st3"/><text x="40.34" y="606.18" class="st4">Non-IP sockets</text></g><g id="shape66-19" transform="translate(-293.272,491.026) rotate(-90)"><title>Rectangle.66</title><desc>Network Management API</desc><g id="shadow66-20" class="st1" transform="matrix(1,0,0,1,-1.97279,0.345598)"><rect width="297.66" height="28.689" x="0" y="588.833" class="st2"/></g><rect width="297.66" height="28.689" x="0" y="588.833" class="st3"/><text x="94.9" y="606.18" class="st4">Network Management API</text></g><g id="shape68-25" transform="translate(24.9249,-431.549)"><title>Rectangle.68</title><rect width="190.204" height="102.446" x="0" y="515.076" class="st5"/></g><g id="shape69-27" transform="translate(18.25,-507.212)"><title>Sheet.69</title><desc>Application Protocols</desc><rect width="203.554" height="26.783" x="0" y="590.739" class="st6"/><text x="49.82" y="607.73" class="st7">Application Protocols</text></g><g id="shape70-30" transform="translate(122.475,-479.759)"><title>Rectangle.70</title><desc>LWM2M</desc><g id="shadow70-31" class="st1" transform="matrix(1,0,0,1,0.345598,1.97279)"><rect width="81.355" height="30.131" x="0" y="587.391" class="st2"/></g><rect width="81.355" height="30.131" x="0" y="587.391" class="st8"/><text x="24.81" y="605.16" class="st9">LWM2M</text></g><g id="shape71-36" transform="translate(33.9643,-479.759)"><title>Rectangle.71</title><desc>CoAP</desc><g id="shadow71-37" class="st1" transform="matrix(1,0,0,1,0.345598,1.97279)"><rect width="81.355" height="30.131" x="0" y="587.391" class="st2"/></g><rect width="81.355" height="30.131" x="0" y="587.391" class="st8"/><text x="30.98" y="605.16" class="st9">CoAP</text></g><g id="shape72-42" transform="translate(35.0942,-440.588)"><title>Rectangle.72</title><desc>MQTT</desc><g id="shadow72-43" class="st1" transform="matrix(1,0,0,1,0.345598,1.97279)"><rect width="81.355" height="30.131" x="0" y="587.391" class="st2"/></g><rect width="81.355" height="30.131" x="0" y="587.391" class="st8"/><text x="29.42" y="605.16" class="st9">MQTT</text></g><g id="shape73-48" transform="translate(123.982,-440.588)"><title>Rectangle.73</title><desc>...</desc><g id="shadow73-49" class="st1" transform="matrix(1,0,0,1,0.345598,1.97279)"><rect width="81.355" height="30.131" x="0" y="587.391" class="st2"/></g><rect width="81.355" height="30.131" x="0" y="587.391" class="st8"/><text x="37.27" y="605.16" class="st9">...</text></g><g id="shape48-54" transform="translate(25.2651,-246.618)"><title>Rectangle.48</title><rect width="231.258" height="140.864" x="0" y="476.658" class="st10"/></g><g id="shape49-56" transform="translate(48.5331,-360.698)"><title>Sheet.49</title><desc>Network Protocols</desc><rect width="203.554" height="26.783" x="0" y="590.739" class="st6"/><text x="56.33" y="607.73" class="st7">Network Protocols</text></g><g id="shape50-59" transform="translate(34.3044,-294.075)"><title>Rectangle.50</title><desc>IPv6</desc><g id="shadow50-60" class="st1" transform="matrix(1,0,0,1,0.345598,1.97279)"><rect width="102.446" height="30.131" x="0" y="587.391" class="st2"/></g><rect width="102.446" height="30.131" x="0" y="587.391" class="st8"/><text x="43.45" y="605.16" class="st9">IPv6</text></g><g id="shape51-65" transform="translate(145.79,-256.411)"><title>Rectangle.51</title><desc>ICMPv4</desc><g id="shadow51-66" class="st1" transform="matrix(1,0,0,1,0.345598,1.97279)"><rect width="102.446" height="30.131" x="0" y="587.391" class="st2"/></g><rect width="102.446" height="30.131" x="0" y="587.391" class="st8"/><text x="37.2" y="605.16" class="st9">ICMPv4</text></g><g id="shape52-71" transform="translate(145.79,-294.075)"><title>Rectangle.52</title><desc>IPv4</desc><g id="shadow52-72" class="st1" transform="matrix(1,0,0,1,0.345598,1.97279)"><rect width="102.446" height="30.131" x="0" y="587.391" class="st2"/></g><rect width="102.446" height="30.131" x="0" y="587.391" class="st8"/><text x="43.45" y="605.16" class="st9">IPv4</text></g><g id="shape53-77" transform="translate(34.3044,-256.411)"><title>Rectangle.53</title><desc>ICMPv6</desc><g id="shadow53-78" class="st1" transform="matrix(1,0,0,1,0.345598,1.97279)"><rect width="102.446" height="30.131" x="0" y="587.391" class="st2"/></g><rect width="102.446" height="30.131" x="0" y="587.391" class="st8"/><text x="37.2" y="605.16" class="st9">ICMPv6</text></g><g id="shape54-83" transform="translate(34.3044,-333.245)"><title>Rectangle.54</title><desc>UDP</desc><g id="shadow54-84" class="st1" transform="matrix(1,0,0,1,0.345598,1.97279)"><rect width="102.446" height="30.131" x="0" y="587.391" class="st2"/></g><rect width="102.446" height="30.131" x="0" y="587.391" class="st8"/><text x="43.24" y="605.16" class="st9">UDP</text></g><g id="shape55-89" transform="translate(145.79,-333.245)"><title>Rectangle.55</title><desc>TCP</desc><g id="shadow55-90" class="st1" transform="matrix(1,0,0,1,0.345598,1.97279)"><rect width="102.446" height="30.131" x="0" y="587.391" class="st2"/></g><rect width="102.446" height="30.131" x="0" y="587.391" class="st8"/><text x="44.31" y="605.16" class="st9">TCP</text></g><g id="shape18-95" transform="translate(31.5232,-138.43)"><title>Rectangle.18</title><desc>Ethernet</desc><g id="shadow18-96" class="st1" transform="matrix(1,0,0,1,0.345598,1.97279)"><rect width="58.796" height="30.131" x="0" y="587.391" class="st2"/></g><rect width="58.796" height="30.131" x="0" y="587.391" class="st8"/><text x="15.19" y="604.86" class="st11">Ethernet</text></g><g id="shape19-101" transform="translate(94.4572,-138.43)"><title>Rectangle.19</title><desc>802.15.4</desc><g id="shadow19-102" class="st1" transform="matrix(1,0,0,1,0.345598,1.97279)"><rect width="65.403" height="30.131" x="0" y="587.391" class="st2"/></g><rect width="65.403" height="30.131" x="0" y="587.391" class="st8"/><text x="18.52" y="604.86" class="st11">802.15.4</text></g><g id="shape20-107" transform="translate(163.998,-138.43)"><title>Rectangle.20</title><desc>Bluetooth</desc><g id="shadow20-108" class="st1" transform="matrix(1,0,0,1,0.345598,1.97279)"><rect width="58.796" height="30.131" x="0" y="587.391" class="st2"/></g><rect width="58.796" height="30.131" x="0" y="587.391" class="st8"/><text x="13.21" y="604.86" class="st11">Bluetooth</text></g><g id="shape46-113" transform="translate(25.2651,-126.496)"><title>Rectangle.46</title><rect width="264.434" height="80.198" x="0" y="537.324" class="st10"/></g><g id="shape47-115" transform="translate(49.8677,-180.713)"><title>Sheet.47</title><desc>L2 Network Technologies</desc><rect width="215.229" height="26.783" x="0" y="590.739" class="st6"/><text x="46.21" y="607.73" class="st7">L2 Network Technologies</text></g><g id="shape61-118" transform="translate(225.256,-138.43)"><title>Rectangle.61</title><desc>CAN</desc><g id="shadow61-119" class="st1" transform="matrix(1,0,0,1,0.345598,1.97279)"><rect width="58.796" height="30.131" x="0" y="587.391" class="st2"/></g><rect width="58.796" height="30.131" x="0" y="587.391" class="st8"/><text x="21.49" y="605.16" class="st9">CAN</text></g><g id="shape23-124" transform="translate(24.379,-7.75317)"><title>Rectangle.23</title><rect width="299.871" height="111.486" x="0" y="506.036" class="st10"/></g><g id="shape24-126" transform="translate(80.6879,-86.5278)"><title>Sheet.24</title><desc>Network Device Drivers</desc><rect width="194.321" height="30.968" x="0" y="586.554" class="st6"/><text x="39.73" y="605.64" class="st7">Network Device Drivers</text></g><g id="shape58-129" transform="translate(106.259,-160.95)"><title>Rectangle.58</title><desc>IPv6 Header Compression</desc><g id="shadow58-130" class="st1" transform="matrix(1,0,0,1,0.345598,1.97279)"><rect width="102.446" height="21.092" x="0" y="596.43" class="st2"/></g><rect width="102.446" height="21.092" x="0" y="596.43" class="st3"/><text x="19.89" y="608.78" class="st12">IPv6 Header Compression</text></g><g id="shape78-135" transform="translate(221.804,-431.549)"><title>Rectangle.78</title><g id="shadow78-136" class="st1" transform="matrix(1,0,0,1,0.345598,1.97279)"><rect width="102.446" height="112.41" x="0" y="505.112" class="st2"/></g><rect width="102.446" height="112.41" x="0" y="505.112" class="st3"/></g><g id="shape2-140" transform="translate(24.379,-540.021)"><title>Rectangle.2</title><desc>Network Application</desc><g id="shadow2-141" class="st1" transform="matrix(1,0,0,1,0.345598,1.97279)"><rect width="299.871" height="58.173" x="0" y="559.349" class="st2"/></g><rect width="299.871" height="58.173" x="0" y="559.349" class="st3"/><text x="99.79" y="592.04" class="st7">Network Application</text></g><g id="shape79-146" transform="translate(222.18,-531.067)"><title>Rectangle.79</title><rect width="102.07" height="21.845" x="0" y="595.677" class="st13"/></g><g id="shape33-148" transform="translate(37.2614,-43.3794)"><title>Rectangle.33</title><g id="shadow33-149" class="st1" transform="matrix(1,0,0,1,0.345598,1.97279)"><rect width="67.752" height="43.766" x="0" y="573.756" class="st2"/></g><rect width="67.752" height="43.766" x="0" y="573.756" class="st3"/></g><g id="shape35-153" transform="translate(43.2973,-37.0935)"><title>Rectangle.35</title><g id="shadow35-154" class="st1" transform="matrix(1,0,0,1,0.345598,1.97279)"><rect width="67.752" height="43.766" x="0" y="573.756" class="st2"/></g><rect width="67.752" height="43.766" x="0" y="573.756" class="st3"/></g><g id="shape36-158" transform="translate(49.3235,-31.0673)"><title>Rectangle.36</title><desc>Ethernet drivers</desc><g id="shadow36-159" class="st1" transform="matrix(1,0,0,1,0.345598,1.97279)"><rect width="67.752" height="43.766" x="0" y="573.756" class="st2"/></g><rect width="67.752" height="43.766" x="0" y="573.756" class="st3"/><text x="16.11" y="592.64" class="st4">Ethernet <tspan x="19.91" class="st14" dy="1.2em">drivers</tspan></text></g><g id="shape86-165" transform="translate(134.407,-43.3794)"><title>Rectangle.86</title><g id="shadow86-166" class="st1" transform="matrix(1,0,0,1,0.345598,1.97279)"><rect width="67.752" height="43.766" x="0" y="573.756" class="st2"/></g><rect width="67.752" height="43.766" x="0" y="573.756" class="st3"/></g><g id="shape87-170" transform="translate(140.443,-37.0935)"><title>Rectangle.87</title><g id="shadow87-171" class="st1" transform="matrix(1,0,0,1,0.345598,1.97279)"><rect width="67.752" height="43.766" x="0" y="573.756" class="st2"/></g><rect width="67.752" height="43.766" x="0" y="573.756" class="st3"/></g><g id="shape88-175" transform="translate(146.469,-31.0673)"><title>Rectangle.88</title><desc>802.15.4 drivers</desc><g id="shadow88-176" class="st1" transform="matrix(1,0,0,1,0.345598,1.97279)"><rect width="67.752" height="43.766" x="0" y="573.756" class="st2"/></g><rect width="67.752" height="43.766" x="0" y="573.756" class="st3"/><text x="16.15" y="592.64" class="st4">802.15.4 <tspan x="19.91" class="st14" dy="1.2em">drivers</tspan></text></g><g id="shape90-182" transform="translate(231.553,-43.3794)"><title>Rectangle.33</title><g id="shadow90-183" class="st1" transform="matrix(1,0,0,1,0.345598,1.97279)"><rect width="67.752" height="43.766" x="0" y="573.756" class="st2"/></g><rect width="67.752" height="43.766" x="0" y="573.756" class="st3"/></g><g id="shape91-187" transform="translate(237.589,-37.0935)"><title>Rectangle.35</title><g id="shadow91-188" class="st1" transform="matrix(1,0,0,1,0.345598,1.97279)"><rect width="67.752" height="43.766" x="0" y="573.756" class="st2"/></g><rect width="67.752" height="43.766" x="0" y="573.756" class="st3"/></g><g id="shape92-192" transform="translate(243.615,-31.0673)"><title>Rectangle.36</title><desc>Other drivers</desc><g id="shadow92-193" class="st1" transform="matrix(1,0,0,1,0.345598,1.97279)"><rect width="67.752" height="43.766" x="0" y="573.756" class="st2"/></g><rect width="67.752" height="43.766" x="0" y="573.756" class="st3"/><text x="6.94" y="598.64" class="st4">Other drivers</text></g></g></svg>