<svg xmlns="http://www.w3.org/2000/svg" xmlns:ev="http://www.w3.org/2001/xml-events" xmlns:xlink="http://www.w3.org/1999/xlink" width="649.101" height="798.169" class="st49" color-interpolation-filters="sRGB" viewBox="0 0 486.826 598.627" xml:space="preserve"><style type="text/css">.st1{fill:#deebf6;stroke:none;stroke-width:.25}.st2,.st3{stroke-linecap:round;stroke-linejoin:round;stroke-width:1}.st2{stroke:#c9c9c9;stroke-dasharray:1,2}.st3{stroke:#ed7d31}.st4{fill:#fff;stroke:#323849;stroke-width:.75}.st5{visibility:visible}.st6{fill:#5b9bd5;fill-opacity:.22;filter:url(#filter_2);stroke:#5b9bd5;stroke-opacity:.22}.st7{fill:#deebf6;stroke:#323849;stroke-width:.25}.st8{fill:#323849;font-family:Calibri;font-size:.833336em}.st9{fill:#deebf6;fill-opacity:.5;stroke:#323849;stroke-opacity:.5;stroke-width:.25}.st10{fill:#c9c9c9;font-family:Calibri;font-size:.833336em}.st11{fill:#fff;stroke:#000;stroke-width:.75}.st12{fill:none;stroke:none;stroke-width:.25}.st13,.st14{fill:#c9c9c9;font-family:Calibri;font-size:1.00001em}.st14{font-size:.75em}.st15{fill:#deebf6;fill-opacity:.5;stroke:#c7c8c8;stroke-width:.25}.st16{fill:#fff;fill-opacity:.56;stroke:#323849;stroke-width:.75}.st17{fill:#d8d8d8;font-family:Calibri;font-size:1.00001em}.st18{fill:#deebf6;stroke:#c7c8c8;stroke-width:.25}.st19{font-family:Calibri;font-size:.75em}.st19,.st20{fill:#323849}.st20,.st21{font-family:Calibri}.st20,.st21{font-size:.666664em}.st21{fill:#c9c9c9}.st22{fill:#fff;fill-opacity:.32;stroke:#323849;stroke-width:.75}.st23{font-size:1em}.st24{fill:#deebf6;fill-opacity:.51;stroke:#323849;stroke-opacity:.49;stroke-width:.25}.st25{fill:#000;font-family:Calibri;font-size:.75em}.st26{marker-end:url(#mrkr4-217);stroke:#000;stroke-linecap:round;stroke-linejoin:round;stroke-width:4}.st27{fill:#000;fill-opacity:1;stroke:#000;stroke-opacity:1;stroke-width:.50251256281407}.st28{marker-end:url(#mrkr5-231);stroke-linecap:round;stroke-linejoin:round;stroke-width:1}.st28,.st29,.st30{stroke:#5b9bd5}.st29{fill:#5b9bd5;fill-opacity:1;stroke-opacity:1;stroke-width:.28409090909091}.st30{marker-end:url(#mrkr4-237);stroke-linecap:round;stroke-linejoin:round;stroke-width:1}.st31{fill:#4a80b1;stroke:none;stroke-linecap:butt;stroke-width:.75}.st32{fill:#deebf6;stroke:#323849;stroke-opacity:.5;stroke-width:.25}.st33,.st34{fill:#c9c9c9;font-family:Calibri;font-size:.499992em}.st34{fill:#ed7d31;font-size:.666664em}.st35,.st36{stroke:#c7c8c8}.st35{marker-end:url(#mrkr13-268);stroke-width:.24}.st36{fill:#c7c8c8;fill-opacity:1;stroke-opacity:1;stroke-width:.14285714285714}.st37{fill:#fff;stroke:none;stroke-linecap:butt;stroke-width:7.2}.st38{fill:#000;font-family:Calibri;font-size:.666664em}.st39{stroke:#5b9bd5;stroke-linecap:round;stroke-linejoin:round;stroke-width:1.2}.st40{fill:#fff;stroke:none;stroke-linecap:butt}.st41{marker-end:url(#mrkr13-284);stroke-width:.24}.st41,.st42,.st43{stroke:#2e75b5}.st42{fill:#2e75b5;fill-opacity:1;stroke-opacity:1;stroke-width:.14285714285714}.st43{stroke-linecap:round;stroke-linejoin:round;stroke-width:1.2}.st44,.st45{fill:#000;font-family:Calibri;font-size:1.5em}.st45{fill:#323849;font-size:1.00001em}.st46{fill:#ed7d31;fill-opacity:.22;filter:url(#filter_2);stroke:#ed7d31;stroke-opacity:.22}.st47{fill:#ed7d31;stroke:#c7c8c8;stroke-width:.25}.st48{fill:#feffff;font-family:Calibri;font-size:.833336em}.st49{fill:none;fill-rule:evenodd;font-size:12px;overflow:visible;stroke-linecap:square;stroke-miterlimit:3}</style><defs id="Markers"><g id="lend4"><path d="M 2 1 L 0 0 L 2 -1 L 2 1" style="stroke:none"/></g><marker id="mrkr4-217" class="st27" markerUnits="strokeWidth" orient="auto" overflow="visible" refX="-3.98"><use transform="scale(-1.99,-1.99)" xlink:href="#lend4"/></marker><g id="lend5"><path d="M 2 1 L 0 0 L 1.98117 -0.993387 C 1.67173 -0.364515 1.67301 0.372641 1.98465 1.00043" style="stroke:none"/></g><marker id="mrkr5-231" class="st29" markerUnits="strokeWidth" orient="auto" overflow="visible" refX="-6.16"><use transform="scale(-3.52,-3.52)" xlink:href="#lend5"/></marker><marker id="mrkr4-237" class="st29" markerUnits="strokeWidth" orient="auto" overflow="visible" refX="-7.04"><use transform="scale(-3.52,-3.52)" xlink:href="#lend4"/></marker><g id="lend13"><path d="M 3 1 L 0 0 L 3 -1 L 3 1" style="stroke:none"/></g><marker id="mrkr13-268" class="st36" markerUnits="strokeWidth" orient="auto" overflow="visible" refX="-21"><use transform="scale(-7,-7)" xlink:href="#lend13"/></marker><marker id="mrkr13-284" class="st42" markerUnits="strokeWidth" orient="auto" overflow="visible" refX="-21"><use transform="scale(-7,-7)" xlink:href="#lend13"/></marker></defs><defs id="Filters"><filter id="filter_2"><feGaussianBlur stdDeviation="2"/></filter></defs><g><title>RX sequence</title><g id="shape143-1" transform="translate(180.875,-408.478)"><title>Rectangle.143</title><rect width="76.543" height="20.035" x="0" y="578.591" class="st1"/></g><g id="shape94-3" transform="translate(49.6893,-76.8633) rotate(0.0112307)"><title>Sheet.94</title><path d="M0 598.63 L388.43 598.63" class="st2"/></g><g id="shape95-6" transform="translate(42.0914,-234.72) rotate(-0.0391061)"><title>Sheet.95</title><path d="M0 598.63 L395.5 598.63" class="st2"/></g><g id="shape96-9" transform="translate(42.6472,-266.306) rotate(0.0140873)"><title>Sheet.96</title><path d="M0 598.63 L395.5 598.63" class="st2"/></g><g id="shape97-12" transform="translate(42.1945,-342.085) rotate(-0.0292365)"><title>Sheet.97</title><path d="M0 598.63 L395.57 598.63" class="st2"/></g><g id="shape98-15" transform="translate(39.3031,-401.856) rotate(0.12472)"><title>Sheet.98</title><path d="M0 598.63 L423 598.63" class="st3"/></g><g id="shape99-18" transform="translate(42.9908,-434.862) rotate(0.0469737)"><title>Sheet.99</title><path d="M0 598.63 L396 598.63" class="st2"/></g><g id="shape46-21" transform="translate(163.804,-167.866)"><title>Rectangle.46</title><rect width="242.529" height="64.409" x="0" y="534.218" class="st4"/></g><g id="shape1-23" transform="translate(163.804,-405.34)"><title>Rectangle</title><desc>Socket API</desc><g id="shadow1-24" class="st5" transform="matrix(1,0,0,1,0.345598,1.97279)"><rect width="242.529" height="26.313" x="0" y="572.314" class="st6"/></g><rect width="242.529" height="26.313" x="0" y="572.314" class="st7"/><text x="99.91" y="588.47" class="st8">Socket API</text></g><g id="shape57-29" transform="translate(163.804,-237.426)"><title>Rectangle.57</title><desc>Network Interface Abstraction</desc><g id="shadow57-30" class="st5" transform="matrix(1,0,0,1,0.345598,1.97279)"><rect width="242.529" height="26.313" x="0" y="572.314" class="st6"/></g><rect width="242.529" height="26.313" x="0" y="572.314" class="st7"/><text x="59.58" y="588.47" class="st8">Network Interface Abstraction</text></g><g id="shape60-35" transform="translate(-192.327,328.009) rotate(-90)"><title>Rectangle.60</title><desc>Non-IP sockets</desc><g id="shadow60-36" class="st5" transform="matrix(1,0,0,1,-1.97279,0.345598)"><rect width="129.195" height="26.313" x="0" y="572.314" class="st6"/></g><rect width="129.195" height="26.313" x="0" y="572.314" class="st9"/><text x="34.5" y="588.47" class="st10">Non-IP sockets</text></g><g id="shape66-41" transform="translate(-160.606,430.95) rotate(-90)"><title>Rectangle.66</title><desc>Network Management API</desc><g id="shadow66-42" class="st5" transform="matrix(1,0,0,1,-1.97279,0.345598)"><rect width="264.045" height="26.313" x="0" y="572.314" class="st6"/></g><rect width="264.045" height="26.313" x="0" y="572.314" class="st9"/><text x="78.09" y="588.47" class="st10">Network Management API</text></g><g id="shape68-47" transform="translate(163.492,-438.502)"><title>Rectangle.68</title><rect width="174.447" height="93.96" x="0" y="504.667" class="st11"/></g><g id="shape69-49" transform="translate(157.37,-507.897)"><title>Sheet.69</title><desc>Application Protocols</desc><rect width="186.691" height="24.565" x="0" y="574.062" class="st12"/><text x="41.39" y="589.94" class="st13">Application Protocols</text></g><g id="shape70-52" transform="translate(252.961,-482.718)"><title>Rectangle.70</title><desc>LWM2M</desc><g id="shadow70-53" class="st5" transform="matrix(1,0,0,1,0.345598,1.97279)"><rect width="74.615" height="27.635" x="0" y="570.991" class="st6"/></g><rect width="74.615" height="27.635" x="0" y="570.991" class="st9"/><text x="21.44" y="587.51" class="st14">LWM2M</text></g><g id="shape71-58" transform="translate(171.782,-482.718)"><title>Rectangle.71</title><desc>CoAP</desc><g id="shadow71-59" class="st5" transform="matrix(1,0,0,1,0.345598,1.97279)"><rect width="74.615" height="27.635" x="0" y="570.991" class="st6"/></g><rect width="74.615" height="27.635" x="0" y="570.991" class="st15"/><text x="27.61" y="587.51" class="st14">CoAP</text></g><g id="shape72-64" transform="translate(172.819,-446.792)"><title>Rectangle.72</title><desc>MQTT</desc><g id="shadow72-65" class="st5" transform="matrix(1,0,0,1,0.345598,1.97279)"><rect width="74.615" height="27.635" x="0" y="570.991" class="st6"/></g><rect width="74.615" height="27.635" x="0" y="570.991" class="st9"/><text x="26.05" y="587.51" class="st14">MQTT</text></g><g id="shape73-70" transform="translate(254.343,-446.792)"><title>Rectangle.73</title><desc>...</desc><g id="shadow73-71" class="st5" transform="matrix(1,0,0,1,0.345598,1.97279)"><rect width="74.615" height="27.635" x="0" y="570.991" class="st6"/></g><rect width="74.615" height="27.635" x="0" y="570.991" class="st9"/><text x="33.9" y="587.51" class="st14">...</text></g><g id="shape48-76" transform="translate(163.804,-268.891)"><title>Rectangle.48</title><rect width="212.1" height="129.195" x="0" y="469.432" class="st16"/></g><g id="shape49-78" transform="translate(185.144,-373.521)"><title>Sheet.49</title><desc>Network Protocols</desc><rect width="186.691" height="24.565" x="0" y="574.062" class="st12"/><text x="47.89" y="589.94" class="st17">Network Protocols</text></g><g id="shape50-81" transform="translate(172.094,-312.416)"><title>Rectangle.50</title><desc>IPv6</desc><g id="shadow50-82" class="st5" transform="matrix(1,0,0,1,0.345598,1.97279)"><rect width="93.96" height="27.635" x="0" y="570.991" class="st6"/></g><rect width="93.96" height="27.635" x="0" y="570.991" class="st9"/><text x="39.21" y="587.51" class="st14">IPv6</text></g><g id="shape51-87" transform="translate(274.345,-277.872)"><title>Rectangle.51</title><desc>ICMPv4</desc><g id="shadow51-88" class="st5" transform="matrix(1,0,0,1,0.345598,1.97279)"><rect width="93.96" height="27.635" x="0" y="570.991" class="st6"/></g><rect width="93.96" height="27.635" x="0" y="570.991" class="st9"/><text x="32.96" y="587.51" class="st14">ICMPv4</text></g><g id="shape52-93" transform="translate(274.345,-312.416)"><title>Rectangle.52</title><desc>IPv4</desc><g id="shadow52-94" class="st5" transform="matrix(1,0,0,1,0.345598,1.97279)"><rect width="93.96" height="27.635" x="0" y="570.991" class="st6"/></g><rect width="93.96" height="27.635" x="0" y="570.991" class="st18"/><text x="39.21" y="587.51" class="st19">IPv4</text></g><g id="shape53-99" transform="translate(172.094,-277.872)"><title>Rectangle.53</title><desc>ICMPv6</desc><g id="shadow53-100" class="st5" transform="matrix(1,0,0,1,0.345598,1.97279)"><rect width="93.96" height="27.635" x="0" y="570.991" class="st6"/></g><rect width="93.96" height="27.635" x="0" y="570.991" class="st9"/><text x="32.96" y="587.51" class="st14">ICMPv6</text></g><g id="shape54-105" transform="translate(172.094,-348.342)"><title>Rectangle.54</title><desc>UDP</desc><g id="shadow54-106" class="st5" transform="matrix(1,0,0,1,0.345598,1.97279)"><rect width="93.96" height="27.635" x="0" y="570.991" class="st6"/></g><rect width="93.96" height="27.635" x="0" y="570.991" class="st18"/><text x="39" y="587.51" class="st19">UDP</text></g><g id="shape55-111" transform="translate(274.345,-348.342)"><title>Rectangle.55</title><desc>TCP</desc><g id="shadow55-112" class="st5" transform="matrix(1,0,0,1,0.345598,1.97279)"><rect width="93.96" height="27.635" x="0" y="570.991" class="st6"/></g><rect width="93.96" height="27.635" x="0" y="570.991" class="st9"/><text x="40.06" y="587.51" class="st14">TCP</text></g><g id="shape18-117" transform="translate(169.543,-176.156)"><title>Rectangle.18</title><desc>Ethernet</desc><g id="shadow18-118" class="st5" transform="matrix(1,0,0,1,0.345598,1.97279)"><rect width="53.925" height="27.635" x="0" y="570.991" class="st6"/></g><rect width="53.925" height="27.635" x="0" y="570.991" class="st18"/><text x="12.75" y="587.21" class="st20">Ethernet</text></g><g id="shape19-123" transform="translate(227.264,-176.156)"><title>Rectangle.19</title><desc>802.15.4</desc><g id="shadow19-124" class="st5" transform="matrix(1,0,0,1,0.345598,1.97279)"><rect width="59.985" height="27.635" x="0" y="570.991" class="st6"/></g><rect width="59.985" height="27.635" x="0" y="570.991" class="st9"/><text x="15.81" y="587.21" class="st21">802.15.4</text></g><g id="shape20-129" transform="translate(291.044,-176.156)"><title>Rectangle.20</title><desc>Bluetooth</desc><g id="shadow20-130" class="st5" transform="matrix(1,0,0,1,0.345598,1.97279)"><rect width="53.925" height="27.635" x="0" y="570.991" class="st6"/></g><rect width="53.925" height="27.635" x="0" y="570.991" class="st9"/><text x="10.78" y="587.21" class="st21">Bluetooth</text></g><g id="shape47-135" transform="translate(186.368,-207.709)"><title>Sheet.47</title><desc>L2 Network Technologies</desc><rect width="197.399" height="24.565" x="0" y="574.062" class="st12"/><text x="37.29" y="589.94" class="st13">L2 Network Technologies</text></g><g id="shape61-138" transform="translate(347.227,-176.156)"><title>Rectangle.61</title><desc>CAN</desc><g id="shadow61-139" class="st5" transform="matrix(1,0,0,1,0.345598,1.97279)"><rect width="53.925" height="27.635" x="0" y="570.991" class="st6"/></g><rect width="53.925" height="27.635" x="0" y="570.991" class="st9"/><text x="19.05" y="587.51" class="st14">CAN</text></g><g id="shape23-144" transform="translate(162.991,-59.8994)"><title>Rectangle.23</title><rect width="275.03" height="102.25" x="0" y="496.376" class="st22"/></g><g id="shape24-146" transform="translate(214.635,-128.987)"><title>Sheet.24</title><desc>Network Device Drivers</desc><rect width="178.223" height="28.403" x="0" y="570.224" class="st12"/><text x="31.68" y="588.03" class="st13">Network Device Drivers</text></g><g id="shape36-149" transform="translate(185.869,-81.2822)"><title>Rectangle.36</title><desc>Ethernet drivers</desc><g id="shadow36-150" class="st5" transform="matrix(1,0,0,1,0.345598,1.97279)"><rect width="62.14" height="40.14" x="0" y="558.487" class="st6"/></g><rect width="62.14" height="40.14" x="0" y="558.487" class="st7"/><text x="13.31" y="575.56" class="st8">Ethernet <tspan x="17.11" class="st23" dy="1.2em">drivers</tspan></text></g><g id="shape86-156" transform="translate(263.905,-92.5744)"><title>Rectangle.86</title><g id="shadow86-157" class="st5" transform="matrix(1,0,0,1,0.345598,1.97279)"><rect width="62.14" height="40.14" x="0" y="558.487" class="st6"/></g><rect width="62.14" height="40.14" x="0" y="558.487" class="st9"/></g><g id="shape87-161" transform="translate(269.441,-86.8092)"><title>Rectangle.87</title><g id="shadow87-162" class="st5" transform="matrix(1,0,0,1,0.345598,1.97279)"><rect width="62.14" height="40.14" x="0" y="558.487" class="st6"/></g><rect width="62.14" height="40.14" x="0" y="558.487" class="st9"/></g><g id="shape88-166" transform="translate(274.968,-81.2822)"><title>Rectangle.88</title><desc>802.15.4 drivers</desc><g id="shadow88-167" class="st5" transform="matrix(1,0,0,1,0.345598,1.97279)"><rect width="62.14" height="40.14" x="0" y="558.487" class="st6"/></g><rect width="62.14" height="40.14" x="0" y="558.487" class="st24"/><text x="13.34" y="575.56" class="st10">802.15.4 <tspan x="17.11" class="st23" dy="1.2em">drivers</tspan></text></g><g id="shape90-173" transform="translate(353.003,-92.5744)"><title>Rectangle.33</title><g id="shadow90-174" class="st5" transform="matrix(1,0,0,1,0.345598,1.97279)"><rect width="62.14" height="40.14" x="0" y="558.487" class="st6"/></g><rect width="62.14" height="40.14" x="0" y="558.487" class="st9"/></g><g id="shape91-178" transform="translate(358.539,-86.8092)"><title>Rectangle.35</title><g id="shadow91-179" class="st5" transform="matrix(1,0,0,1,0.345598,1.97279)"><rect width="62.14" height="40.14" x="0" y="558.487" class="st6"/></g><rect width="62.14" height="40.14" x="0" y="558.487" class="st9"/></g><g id="shape92-183" transform="translate(364.066,-81.2822)"><title>Rectangle.36</title><desc>Other drivers</desc><g id="shadow92-184" class="st5" transform="matrix(1,0,0,1,0.345598,1.97279)"><rect width="62.14" height="40.14" x="0" y="558.487" class="st6"/></g><rect width="62.14" height="40.14" x="0" y="558.487" class="st9"/><text x="4.13" y="581.56" class="st10">Other drivers</text></g><g id="shape102-189" transform="translate(60.25,-53.9439)"><title>Sheet.102</title><desc>Packet received from the network</desc><rect width="103.75" height="18.343" x="0" y="580.283" class="st12"/><text x="8.02" y="592.38" class="st25">Packet received from the <tspan x="69.12" class="st23" dy="1.2em">network</tspan></text></g><g id="shape105-193" transform="translate(24.5917,-146.194)"><title>Sheet.105</title><desc>Allocate buffers and put packet to RX queue</desc><rect width="139.408" height="18.343" x="0" y="580.283" class="st12"/><text x="61.79" y="592.38" class="st25">Allocate buffers and <tspan x="49.91" class="st23" dy="1.2em">put packet to RX queue</tspan></text></g><g id="shape107-197" transform="translate(30.7484,-183.757)"><title>Sheet.107</title><desc>Network packet passed to correct L2 driver, Ethernet headers ...</desc><rect width="135" height="51.601" x="0" y="547.026" class="st12"/><text x="45.5" y="559.13" class="st25">Network packet passed<tspan x="22.76" class="st23" dy="1.2em">to correct L</tspan>2 driver, Ethernet <tspan x="26.92" class="st23" dy="1.2em">headers stripped and packet </tspan><tspan x="100.88" class="st23" dy="1.2em">checked</tspan></text></g><g id="shape112-203" transform="translate(38,-326.194)"><title>Sheet.112</title><desc>IPv4 headers parsed and stripped</desc><rect width="126" height="18.343" x="0" y="580.283" class="st12"/><text x="32.3" y="592.38" class="st25">IPv4 headers parsed and <tspan x="91.6" class="st23" dy="1.2em">stripped</tspan></text></g><g id="shape113-207" transform="translate(39.572,-361.718)"><title>Sheet.113</title><desc>UDP headers parsed and stripped. Packet added to socket queue</desc><rect width="124.232" height="40.14" x="0" y="558.487" class="st12"/><text x="30.11" y="570.59" class="st25">UDP headers parsed and <tspan x="26.37" class="st23" dy="1.2em">stripped</tspan>. Packet added to <tspan x="71.4" class="st23" dy="1.2em">socket queue</tspan></text></g><g id="shape115-212" transform="translate(47,-48.2647)"><title>Dynamic connector</title><path d="M-9 598.63 L-9 124.05" class="st26"/></g><g id="shape116-218" transform="translate(50.35,-419.7)"><title>Sheet.116</title><desc>Packet retrieved from socket queue.Data copied into applicati...</desc><rect width="112.75" height="18.343" x="0" y="580.283" class="st12"/><text x="28.93" y="592.38" class="st25">Packet retrieved from <tspan x="13.89" class="st23" dy="1.2em">socket queue</tspan>.Data copied <tspan x="21.2" class="st23" dy="1.2em">into application buffers</tspan>.</text></g><g id="shape120-223" transform="translate(39.572,-446.792)"><title>Sheet.120</title><desc>Recv returns</desc><rect width="123.92" height="18.343" x="0" y="580.283" class="st12"/><text x="73.9" y="592.38" class="st25">Recv returns</text></g><g id="shape123-226" transform="translate(196.506,-203.791)"><title>Dynamic connector.123</title><path d="M0 598.63 L58.21 567.87" class="st28"/></g><g id="shape124-232" transform="translate(285.068,-263.739)"><title>Dynamic connector.124</title><path d="M0 598.63 L32.05 555.6" class="st30"/></g><g id="shape125-238" transform="translate(274.345,-326.234)"><title>Dynamic connector.125</title><path d="M0 598.63 L-48.73 579.13" class="st30"/></g><g id="shape127-243" transform="translate(283.787,-431.652)"><title>Dynamic connector.127</title><path d="M1.28 598.63 L15.71 499.26" class="st30"/></g><g id="shape129-248" transform="translate(287.35,-18.75)"><title>Network</title><path d="M5.64 573.25 L5.64 583.59 L20.67 583.59 L20.67 573.25 L5.64 573.25 ZM4.7 584.53 L4.7 572.31 L21.61 572.31 L21.61 584.53 L4.7 584.53 ZM24.43 595.81 L24.43 593.93 L17.86 593.93 L17.86 595.81 L24.43 595.81 ZM15.98 596.75 L15.98 592.99 L10.34 592.99 L10.34 596.75 L15.98 596.75 ZM14.1 588.29 L12.22 588.29 L12.22 591.11 L14.1 591.11 L14.1 588.29 ZM2.82 586.41 L23.49 586.41 L23.49 570.43 L2.82 570.43 L2.82 586.41 ZM8.46 595.81 L8.46 593.93 L1.88 593.93 L1.88 595.81 L8.46 595.81 ZM25.22 592.05 C25.82 592.05 26.31 592.54 26.31 593.15 L26.31 596.59 C26.31 597.2 25.82 597.69 25.22 597.69 L17.82 597.69 C17.74 598.22 17.31 598.63 16.76 598.63 L9.56 598.63 C9.01 598.63 8.57 598.22 8.49 597.69 L1.1 597.69 C0.49 597.69 0 597.2 0 596.59 L0 593.15 C-0 592.54 0.49 592.05 1.1 592.05 L8.49 592.05 C8.57 591.52 9.01 591.11 9.56 591.11 L10.34 591.11 L10.34 588.29 L2.04 588.29 C1.43 588.29 0.94 587.8 0.94 587.19 L0.94 569.65 C0.94 569.05 1.43 568.55 2.04 568.55 L24.28 568.55 C24.88 568.55 25.37 569.05 25.37 569.65 L25.37 587.19 C25.37 587.8 24.88 588.29 24.28 588.29 L15.98 588.29 L15.98 591.11 L16.76 591.11 C17.31 591.11 17.74 591.52 17.82 592.05 L25.22 592.05 Z" class="st31"/></g><g id="shape58-250" transform="translate(250.544,-198.287)"><title>Rectangle.58</title><desc>IPv6 Header Compression</desc><g id="shadow58-251" class="st5" transform="matrix(1,0,0,1,0.345598,1.97279)"><rect width="79.956" height="14.216" x="0" y="584.411" class="st6"/></g><rect width="79.956" height="14.216" x="0" y="584.411" class="st32"/><text x="8.64" y="593.32" class="st33">IPv6 Header Compression</text></g><g id="shape132-256" transform="translate(-130.051,193.34) rotate(-90)"><title>Sheet.132</title><desc>User space</desc><rect width="53.925" height="20" x="0" y="578.627" class="st12"/><text x="4" y="589.83" class="st34">User space</text></g><g id="shape134-259" transform="translate(-130.051,256.302) rotate(-90)"><title>Sheet.134</title><desc>Kernel space</desc><rect width="53.925" height="20" x="0" y="578.627" class="st12"/><text x="4" y="589.83" class="st34">Kernel space</text></g><g id="group136-262" transform="translate(-338.461,684.543) rotate(-110.471)"><title>FIFO lane</title><desc>RX queue</desc><g id="shape137-263" transform="translate(0,-5.78714)"><title>Sheet.137</title><path d="M0 598.63 L53.38 598.63" class="st35"/></g><g id="shape138-269" transform="translate(18.9736,1.01464)"><title>Sheet.138</title><desc>FIFO</desc><rect width="14.664" height="9.6" x="2.906" y="587.025" class="st37"/><text x="2.91" y="594.22" class="st38">FIFO</text></g><g id="shape136-272"><path d="M0 598.63 L58.42 598.63" class="st39"/><path d="M0 587.05 L58.42 587.05" class="st39"/><rect width="30.875" height="11.2" x="11.021" y="600.383" class="st40"/><text x="11.02" y="608.78" class="st38">RX queue</text></g></g><g id="group140-278" transform="translate(-21.9187,-318.997) rotate(-23.9855)"><title>FIFO lane.140</title><desc>Socket queue</desc><g id="shape141-279" transform="translate(0,-5.78714)"><title>Sheet.141</title><path d="M0 598.63 L67.19 598.63" class="st41"/></g><g id="shape142-285" transform="translate(25.8775,1.01464)"><title>Sheet.142</title><desc>FIFO</desc><rect width="14.664" height="9.6" x="2.906" y="587.025" class="st37"/><text x="2.91" y="594.22" class="st38">FIFO</text></g><g id="shape140-288"><path d="M0 598.63 L72.23 598.63" class="st43"/><path d="M0 587.05 L72.23 587.05" class="st43"/><rect width="43.953" height="11.2" x="10.735" y="600.383" class="st37"/><text x="10.73" y="608.78" class="st38">Socket queue</text></g></g><g id="shape144-294" transform="translate(37.75,-545.209)"><title>Sheet.144</title><desc>Receiving UDP packet</desc><rect width="157.341" height="27.635" x="0" y="570.991" class="st12"/><text x="4" y="579.41" class="st44">Receiving UDP <tspan x="4" class="st23" dy="1.2em">packet</tspan></text></g><g id="shape154-298" transform="translate(288.289,-40.7293)"><title>Dynamic connector.154</title><path d="M0 598.63 L-65.23 561.55" class="st30"/></g><g id="group158-303" transform="translate(162.991,-438.502)"><title>Sheet.158</title><g id="shape78-304" transform="translate(181.07,0)"><title>Rectangle.78</title><g id="shadow78-305" class="st5" transform="matrix(1,0,0,1,0.345598,1.97279)"><rect width="93.96" height="103.098" x="0" y="495.529" class="st6"/></g><rect width="93.96" height="103.098" x="0" y="495.529" class="st7"/></g><g id="shape2-309" transform="translate(-7.99361E-014,-99.4867)"><title>Rectangle.2</title><desc>Network Application</desc><g id="shadow2-310" class="st5" transform="matrix(1,0,0,1,0.345598,1.97279)"><rect width="275.03" height="34.856" x="0" y="563.771" class="st6"/></g><rect width="275.03" height="34.856" x="0" y="563.771" class="st7"/><text x="87.37" y="584.8" class="st45">Network Application</text></g><g id="shape157-315" transform="translate(181.29,-91.2745)"><title>Rectangle.157</title><rect width="93.74" height="20.035" x="0" y="578.591" class="st1"/></g></g><g id="shape159-317" transform="translate(36.1189,-163.355) rotate(-0.180044)"><title>Sheet.159</title><path d="M0 598.63 L423 598.63" class="st3"/></g><g id="shape161-320" transform="translate(-130.051,492.159) rotate(-90)"><title>Sheet.161</title><desc>“Bottom Half”</desc><rect width="62.14" height="20" x="0" y="578.627" class="st12"/><text x="4" y="589.83" class="st34">“Bottom Half”</text></g><g id="shape162-323" transform="translate(-130.051,430.95) rotate(-90)"><title>Sheet.162</title><desc>Core stack</desc><rect width="62.14" height="20" x="0" y="578.627" class="st12"/><text x="4" y="589.83" class="st34">Core stack</text></g><g id="shape168-326" transform="translate(39.572,-66.8633)"><title>Circle</title><desc>1</desc><g id="shadow168-327" class="st5"><path d="M0 588.63 A10 10 0 0 1 20 588.63 A10 10 0 1 1 0 588.63 Z" class="st46" transform="matrix(1,0,0,1,0.345598,1.97279)"/></g><path d="M0 588.63 A10 10 0 0 1 20 588.63 A10 10 0 1 1 0 588.63 Z" class="st47"/><text x="7.47" y="591.63" class="st48">1</text></g><g id="shape171-332" transform="translate(39.572,-141.44)"><title>Circle.171</title><desc>2</desc><g id="shadow171-333" class="st5"><path d="M0 588.63 A10 10 0 0 1 20 588.63 A10 10 0 1 1 0 588.63 Z" class="st46" transform="matrix(1,0,0,1,0.345598,1.97279)"/></g><path d="M0 588.63 A10 10 0 0 1 20 588.63 A10 10 0 1 1 0 588.63 Z" class="st47"/><text x="7.47" y="591.63" class="st48">2</text></g><g id="shape172-338" transform="translate(39.572,-215.358)"><title>Circle.172</title><desc>3</desc><g id="shadow172-339" class="st5"><path d="M0 588.63 A10 10 0 0 1 20 588.63 A10 10 0 1 1 0 588.63 Z" class="st46" transform="matrix(1,0,0,1,0.345598,1.97279)"/></g><path d="M0 588.63 A10 10 0 0 1 20 588.63 A10 10 0 1 1 0 588.63 Z" class="st47"/><text x="7.47" y="591.63" class="st48">3</text></g><g id="shape173-344" transform="translate(39.572,-249.234)"><title>Circle.173</title><desc>4</desc><g id="shadow173-345" class="st5"><path d="M0 588.63 A10 10 0 0 1 20 588.63 A10 10 0 1 1 0 588.63 Z" class="st46" transform="matrix(1,0,0,1,0.345598,1.97279)"/></g><path d="M0 588.63 A10 10 0 0 1 20 588.63 A10 10 0 1 1 0 588.63 Z" class="st47"/><text x="7.47" y="591.63" class="st48">4</text></g><g id="shape174-350" transform="translate(39.572,-325.013)"><title>Circle.174</title><desc>5</desc><g id="shadow174-351" class="st5"><path d="M0 588.63 A10 10 0 0 1 20 588.63 A10 10 0 1 1 0 588.63 Z" class="st46" transform="matrix(1,0,0,1,0.345598,1.97279)"/></g><path d="M0 588.63 A10 10 0 0 1 20 588.63 A10 10 0 1 1 0 588.63 Z" class="st47"/><text x="7.47" y="591.63" class="st48">5</text></g><g id="shape175-356" transform="translate(39.572,-381.858)"><title>Circle.175</title><desc>6</desc><g id="shadow175-357" class="st5"><path d="M0 588.63 A10 10 0 0 1 20 588.63 A10 10 0 1 1 0 588.63 Z" class="st46" transform="matrix(1,0,0,1,0.345598,1.97279)"/></g><path d="M0 588.63 A10 10 0 0 1 20 588.63 A10 10 0 1 1 0 588.63 Z" class="st47"/><text x="7.47" y="591.63" class="st48">6</text></g><g id="shape176-362" transform="translate(39.572,-417.79)"><title>Circle.176</title><desc>7</desc><g id="shadow176-363" class="st5"><path d="M0 588.63 A10 10 0 0 1 20 588.63 A10 10 0 1 1 0 588.63 Z" class="st46" transform="matrix(1,0,0,1,0.345598,1.97279)"/></g><path d="M0 588.63 A10 10 0 0 1 20 588.63 A10 10 0 1 1 0 588.63 Z" class="st47"/><text x="7.47" y="591.63" class="st48">7</text></g><g id="shape177-368" transform="translate(39.572,-482.718)"><title>Circle.177</title><desc>8</desc><g id="shadow177-369" class="st5"><path d="M0 588.63 A10 10 0 0 1 20 588.63 A10 10 0 1 1 0 588.63 Z" class="st46" transform="matrix(1,0,0,1,0.345598,1.97279)"/></g><path d="M0 588.63 A10 10 0 0 1 20 588.63 A10 10 0 1 1 0 588.63 Z" class="st47"/><text x="7.47" y="591.63" class="st48">8</text></g><g id="shape110-374" transform="translate(51.25,-239.634)"><title>Sheet.110</title><desc>Passed to Network Interface for further processing</desc><rect width="112.75" height="28.403" x="0" y="570.224" class="st12"/><text x="5" y="582.32" class="st25">Passed to Network Interface <tspan x="29.11" class="st23" dy="1.2em">for further processing</tspan></text></g></g></svg>