<svg xmlns="http://www.w3.org/2000/svg" xmlns:ev="http://www.w3.org/2001/xml-events" xmlns:xlink="http://www.w3.org/1999/xlink" width="567.307" height="373.04" class="st8" color-interpolation-filters="sRGB" viewBox="0 0 425.48 279.78" xml:space="preserve"><style type="text/css">.st1{fill:#fff2cc;stroke:#000;stroke-linecap:round;stroke-linejoin:round;stroke-width:.75}.st2{fill:#000;font-family:Arial;font-size:.916672em}.st3{fill:#ebf1df;stroke:#000;stroke-linecap:round;stroke-linejoin:round;stroke-width:.75}.st4{font-size:1em}.st5,.st6{fill:#fcebdd;stroke:#000;stroke-linecap:round;stroke-linejoin:round;stroke-width:.75}.st6{fill:none;stroke:none}.st7{fill:#000;font-family:Arial;font-size:1.16666em}.st8{fill:none;fill-rule:evenodd;font-size:12px;overflow:visible;stroke-linecap:square;stroke-miterlimit:3}</style><g><title>ZepComp_public</title><g id="shape1-1" transform="translate(3.86407,-47.7501)"><title>Sheet.1</title><desc>CPU/SOC</desc><rect width="85.039" height="42.52" x="0" y="237.26" class="st1"/><text x="17.46" y="261.82" class="st2">CPU/SOC</text></g><g id="shape2-4" transform="translate(91.7381,-47.7501)"><title>Sheet.2</title><desc>HW peripherals</desc><rect width="96.378" height="42.52" x="0" y="237.26" class="st1"/><text x="10.29" y="261.82" class="st2">HW peripherals</text></g><g id="shape3-7" transform="translate(102.898,-96.9449)"><title>Sheet.3</title><desc>Drivers</desc><path d="M0.18 279.78 L85.22 279.78 L85.22 191.91 L28.86 191.91 L28.63 217.42 L0 217.42 L0.18 279.78 Z" class="st3"/><text x="25.19" y="245.74" class="st2">Drivers</text></g><g id="shape4-10" transform="translate(3.86407,-96.9449)"><title>Sheet.4</title><desc>Architecture/SOC dependent layer</desc><rect width="96.378" height="42.52" x="0" y="237.26" class="st3"/><text x="6" y="255.22" class="st2">Architecture/SOC <tspan x="8.74" class="st4" dy="1.2em">dependent layer</tspan></text></g><g id="shape5-14" transform="translate(3.86407,-142.299)"><title>Sheet.5</title><path d="M0 279.78 L96.38 279.78 L96.38 259.94 L124.72 259.94 L124.72 237.26 L85.04 237.26 L0 237.26 L0 279.78 Z" class="st3"/></g><g id="shape6-16" transform="translate(3.86407,-187.654)"><title>Sheet.6</title><desc>Application</desc><rect width="184.252" height="42.52" x="0" y="237.26" class="st3"/><text x="65.22" y="261.82" class="st2">Application</text></g><g id="shape7-19" transform="translate(237.722,-3.40157)"><title>Sheet.7</title><desc>Host OS Kernel (i.e. Linux)</desc><rect width="184.252" height="42.52" x="0" y="237.26" class="st5"/><text x="26.71" y="261.82" class="st2">Host OS Kernel (i.e. Linux)</text></g><g id="shape8-22" transform="translate(325.596,-52.1873)"><title>Sheet.8</title><desc>HW models / host HW API adaptation</desc><rect width="96.378" height="42.206" x="0" y="237.573" class="st3"/><text x="16.71" y="248.78" class="st2">HW models / <tspan x="16.71" class="st4" dy="1.2em">host HW API </tspan><tspan x="22.5" class="st4" dy="1.2em">adaptation</tspan></text></g><g id="shape10-27" transform="translate(237.722,-52.1873)"><title>Sheet.10</title><desc>native POSIX arch</desc><path d="M0 279.75 L85.04 279.78 L85 235.02 L96.2 235.02 L96.38 191.91 L0 191.91 L0 279.75 Z" class="st3"/><text x="15.17" y="225.94" class="st2">native POSIX<tspan x="37.49" class="st4" dy="1.2em">arch</tspan></text></g><g id="shape11-31" transform="translate(237.722,-142.896)"><title>Sheet.11</title><path d="M0 279.78 L96.38 279.78 L96.38 259.94 L124.72 259.94 L124.72 237.26 L85.04 237.26 L0 237.26 L0 279.78 Z" class="st3"/></g><g id="shape12-33" transform="translate(237.722,-188.25)"><title>Sheet.12</title><desc>Application</desc><rect width="184.252" height="41.923" x="0" y="237.857" class="st3"/><text x="65.22" y="262.12" class="st2">Application</text></g><g id="shape13-36" transform="translate(27.2499,-244.346)"><title>Sheet.13</title><desc>Normal Zephyr layering</desc><rect width="134.646" height="28.346" x="0" y="251.433" class="st6"/><text x="21.03" y="261.41" class="st7">Normal Zephyr <tspan x="42.81" class="st4" dy="1.2em">layering</tspan></text></g><g id="shape14-40" transform="translate(261.108,-244.346)"><title>Sheet.14</title><desc>Native build Zephyr layering</desc><rect width="134.646" height="28.346" x="0" y="251.433" class="st6"/><text x="7.02" y="261.41" class="st7">Native build Zephyr <tspan x="42.81" class="st4" dy="1.2em">layering</tspan></text></g><g id="shape16-44" transform="translate(336.189,-96.9449)"><title>Sheet.16</title><desc>Drivers</desc><path d="M0.18 279.78 L85.22 279.78 L85.22 191.34 L28.86 191.34 L28.63 217.01 L0 217.01 L0.18 279.78 Z" class="st3"/><text x="25.19" y="245.46" class="st2">Drivers</text></g><g id="shape17-47" transform="translate(3.86407,-142.299)"><title>Sheet.17</title><desc>Zephyr Kernel</desc><rect width="96.378" height="42.52" x="0" y="237.26" class="st6"/><text x="31.07" y="255.22" class="st2">Zephyr<tspan x="32.29" class="st4" dy="1.2em">Kernel</tspan></text></g><g id="shape18-51" transform="translate(238.394,-142.299)"><title>Sheet.18</title><desc>Zephyr Kernel</desc><rect width="96.378" height="42.52" x="0" y="237.26" class="st6"/><text x="31.07" y="255.22" class="st2">Zephyr<tspan x="32.29" class="st4" dy="1.2em">Kernel</tspan></text></g></g></svg>