<svg xmlns="http://www.w3.org/2000/svg" xmlns:ev="http://www.w3.org/2001/xml-events" xmlns:xlink="http://www.w3.org/1999/xlink" width="929.764" height="408.189" class="st19" color-interpolation-filters="sRGB" viewBox="0 0 697.323 306.142" xml:space="preserve"><style type="text/css">.st1,.st2{stroke:#000}.st1{marker-end:url(#mrkr13-6);stroke-linecap:round;stroke-linejoin:round;stroke-width:.75}.st2{fill:#000;fill-opacity:1;stroke-opacity:1;stroke-width:.22935779816514}.st3{fill:none;stroke:none;stroke-linecap:round;stroke-linejoin:round;stroke-width:.75}.st4,.st5{fill:#c05046;font-family:Arial;font-size:.833336em}.st5{fill:#205867}.st6{font-size:1em}.st7{fill:#009543;font-family:Arial;font-size:.833336em}.st8{fill:#d1b3e8;stroke:#7030a0;stroke-linecap:round;stroke-linejoin:round;stroke-width:.75}.st9{fill:#000;font-family:Arial;font-size:.833336em}.st10{fill:#8cdfff;stroke:#0070c0}.st10,.st11,.st12{stroke-linecap:round;stroke-linejoin:round;stroke-width:.75}.st11{fill:#ebf1df;stroke:#50632a}.st12{stroke:#000}.st13{fill:#000;font-family:Arial;font-size:.916672em}.st14{fill:#fff2cc;stroke:#7f6000}.st14,.st15,.st16{stroke-linecap:round;stroke-linejoin:round;stroke-width:.75}.st15{fill:#dbeef3;stroke:#205867}.st16{fill:#fff0f0;stroke:#923931}.st17{fill:#000;font-family:Arial;font-size:.75em}.st18{fill:#eeeaf2;stroke:#54426a;stroke-linecap:round;stroke-linejoin:round;stroke-width:.75}.st19{fill:none;fill-rule:evenodd;font-size:12px;overflow:visible;stroke-linecap:square;stroke-miterlimit:3}</style><defs id="Markers"><g id="lend13"><path d="M 3 1 L 0 0 L 3 -1 L 3 1" style="stroke:none"/></g><marker id="mrkr13-6" class="st2" markerUnits="strokeWidth" orient="auto" overflow="visible" refX="-13.08"><use transform="scale(-4.36,-4.36)" xlink:href="#lend13"/></marker></defs><g><title>Page-1</title><g id="shape1-1" transform="translate(-227.126,181.417) rotate(-90)"><title>Sheet.1</title><path d="M0 306.14 L160.27 306.14" class="st1"/></g><g id="shape2-7" transform="translate(79.0157,-124.724)"><title>Sheet.2</title><path d="M0 306.14 L226.64 306.14" class="st1"/></g><g id="shape3-12" transform="translate(148.465,-53.8583)"><title>Sheet.3</title><desc>speed</desc><rect width="51.024" height="28.346" x="0" y="277.795" class="st3"/><text x="11.89" y="294.97" class="st4">speed</text></g><g id="shape4-15" transform="translate(-3.18898,-199.134)"><title>Sheet.4</title><desc>Visibility, debug-ability &amp; ability to instrument</desc><rect width="75.118" height="28.346" x="0" y="277.795" class="st3"/><text x="18.11" y="276.97" class="st5">Visibility, <tspan x="9.21" class="st6" dy="1.2em">debug</tspan>-ability<tspan x="14.49" class="st6" dy="1.2em">&amp; </tspan>ability to <tspan x="14.22" class="st6" dy="1.2em">instrument</tspan></text></g><g id="shape8-21" transform="translate(122.598,188.504) rotate(-90)"><title>Sheet.8</title><path d="M0 306.14 L160.27 306.14" class="st1"/></g><g id="shape9-26" transform="translate(361.417,-189.185)"><title>Sheet.9</title><desc>Accuracy of the HW</desc><rect width="63.779" height="28.346" x="0" y="277.795" class="st3"/><text x="7.54" y="288.97" class="st7">Accuracy of <tspan x="26.44" class="st6" dy="1.2em">the HW</tspan></text></g><g id="shape32-30" transform="translate(84.5022,-124.724)"><title>Sheet.32</title><desc>RTL sim.</desc><ellipse cx="15.659" cy="260.079" class="st8" rx="15.659" ry="46.063"/><text x="6.21" y="257.08" class="st9">RTL <tspan x="6.49" class="st6" dy="1.2em">sim</tspan>.</text></g><g id="shape31-34" transform="translate(115.82,-124.724)"><title>Sheet.31</title><desc>HW emu.</desc><ellipse cx="19.888" cy="260.079" class="st10" rx="19.888" ry="46.063"/><text x="11.56" y="257.08" class="st9">HW <tspan x="8.77" class="st6" dy="1.2em">emu</tspan>.</text></g><g id="shape34-38" transform="translate(21.5629,-128.361) rotate(-45)"><title>Sheet.34</title><ellipse cx="9.289" cy="283.032" class="st11" rx="9.289" ry="23.11"/></g><g id="shape36-40" transform="translate(378.334,-273.543)"><title>Sheet.36</title><desc>Full</desc><rect width="39.776" height="14.173" x="0" y="291.969" class="st3"/><text x="19.66" y="302.06" class="st7">Full</text></g><g id="shape37-43" transform="translate(364.961,-110.551)"><title>Sheet.37</title><desc>Rough</desc><rect width="63.779" height="14.173" x="0" y="291.969" class="st3"/><text x="30.31" y="302.06" class="st7">Rough</text></g><g id="shape38-46" transform="translate(40.6109,-287.717)"><title>Sheet.38</title><desc>Full</desc><rect width="31.318" height="14.173" x="0" y="291.969" class="st3"/><text x="11.2" y="302.06" class="st5">Full</text></g><g id="shape39-49" transform="translate(40.6109,-124.724)"><title>Sheet.39</title><desc>Low</desc><rect width="31.318" height="14.173" x="0" y="291.969" class="st3"/><text x="8.97" y="302.06" class="st5">Low</text></g><g id="shape41-52" transform="translate(555.236,174.331) rotate(90)"><title>Sheet.41</title><path d="M0 306.14 L14.17 306.14" class="st12"/></g><g id="shape42-55" transform="translate(477.283,174.331) rotate(90)"><title>Sheet.42</title><path d="M0 306.14 L14.17 306.14" class="st12"/></g><g id="shape43-58" transform="translate(441.85,174.331) rotate(90)"><title>Sheet.43</title><path d="M0 306.14 L14.17 306.14" class="st12"/></g><g id="shape44-61" transform="translate(406.417,174.331) rotate(90)"><title>Sheet.44</title><path d="M0 306.14 L14.17 306.14" class="st12"/></g><g id="shape45-64" transform="translate(548.15,184.252) rotate(90)"><title>Sheet.45</title><desc>10x</desc><rect width="51.024" height="14.173" x="0" y="291.969" class="st3"/><text x="17.45" y="302.06" class="st4">10x</text></g><g id="shape46-67" transform="translate(512.762,184.252) rotate(90)"><title>Sheet.46</title><desc>1x</desc><rect width="51.024" height="14.173" x="0" y="291.969" class="st3"/><text x="20.23" y="302.06" class="st4">1x</text></g><g id="shape47-70" transform="translate(471.568,184.252) rotate(90)"><title>Sheet.47</title><desc>≈1/10x</desc><rect width="51.024" height="14.173" x="0" y="291.969" class="st3"/><text x="10.54" y="302.06" class="st4">≈1/10x</text></g><g id="shape48-73" transform="translate(434.535,184.252) rotate(90)"><title>Sheet.48</title><desc>&lt;1/100x</desc><rect width="51.024" height="14.173" x="0" y="291.969" class="st3"/><text x="7.58" y="302.06" class="st4">&lt;1/100x</text></g><g id="shape49-76" transform="translate(399.216,188.504) rotate(90)"><title>Sheet.49</title><desc>&lt;1/1000x</desc><rect width="55.331" height="14.173" x="0" y="291.969" class="st3"/><text x="6.95" y="302.06" class="st4">&lt;1/1000x</text></g><g id="shape54-79" transform="translate(63.0709,-2.83465)"><title>Sheet.54</title><desc>ISS: Instruction Set Simulator Dev. boad: Development board H...</desc><rect width="321.732" height="51.024" x="0" y="255.118" class="st3"/><text x="4" y="264.13" class="st13">ISS: Instruction Set Simulator<tspan x="4" class="st6" dy="1.2em">Dev</tspan>. boad: Development board<tspan x="4" class="st6" dy="1.2em">HW emu</tspan>. : Hardware emulator, e.g. Cadence Palladium<tspan x="4" class="st6" dy="1.2em">RTL sim</tspan>. : HW RTL simulations</text></g><g id="shape56-85" transform="translate(206.362,-124.724)"><title>Sheet.56</title><ellipse cx="7.767" cy="259.738" class="st14" rx="7.767" ry="46.404"/></g><g id="shape33-87" transform="translate(213.924,-260.787)"><title>Sheet.33</title><desc>POSIX arch</desc><ellipse cx="44.691" cy="291.969" class="st15" rx="44.691" ry="14.173"/><text x="18.29" y="294.97" class="st9">POSIX arch</text></g><g id="shape30-90" transform="translate(141.732,-174.331)"><title>Sheet.30</title><desc>ISS</desc><ellipse cx="23.163" cy="263.071" class="st16" rx="23.163" ry="43.071"/><text x="15.1" y="266.07" class="st9">ISS</text></g><g id="shape57-93" transform="translate(589.606,177.165) rotate(90)"><title>Sheet.57</title><path d="M0 306.14 L14.17 306.14" class="st12"/></g><g id="shape58-96" transform="translate(582.52,187.087) rotate(90)"><title>Sheet.58</title><desc>&gt; 100x</desc><rect width="51.024" height="14.173" x="0" y="291.969" class="st3"/><text x="10.36" y="302.06" class="st4">&gt; 100x</text></g><g id="shape59-99" transform="translate(302.23,-187.248) rotate(-30)"><title>Sheet.59</title><ellipse cx="15.659" cy="278.476" class="st8" rx="15.659" ry="27.665"/></g><g id="shape61-101" transform="translate(489.994,-121.253) rotate(-15)"><title>Sheet.61</title><ellipse cx="19.888" cy="259.738" class="st11" rx="19.888" ry="46.404"/></g><g id="shape62-103" transform="translate(556.498,-272.126)"><title>Sheet.62</title><ellipse cx="7.767" cy="299.112" class="st14" rx="7.767" ry="7.03"/></g><g id="shape63-105" transform="translate(425.224,-31.7666) rotate(-45)"><title>Sheet.63</title><ellipse cx="19.888" cy="232.905" class="st15" rx="19.888" ry="73.237"/></g><g id="shape64-107" transform="translate(420.366,-159.73) rotate(-15)"><title>Sheet.64</title><ellipse cx="23.163" cy="267.758" class="st16" rx="23.163" ry="38.384"/></g><g id="shape65-109" transform="translate(429.689,-117.638)"><title>Sheet.65</title><path d="M0 306.14 L226.64 306.14" class="st1"/></g><g id="shape66-114" transform="translate(499.138,-46.7717)"><title>Sheet.66</title><desc>speed</desc><rect width="51.024" height="28.346" x="0" y="277.795" class="st3"/><text x="11.89" y="294.97" class="st4">speed</text></g><g id="shape67-117" transform="translate(870.476,181.417) rotate(90)"><title>Sheet.67</title><path d="M0 306.14 L14.17 306.14" class="st12"/></g><g id="shape68-120" transform="translate(905.909,181.417) rotate(90)"><title>Sheet.68</title><path d="M0 306.14 L14.17 306.14" class="st12"/></g><g id="shape69-123" transform="translate(827.957,181.417) rotate(90)"><title>Sheet.69</title><path d="M0 306.14 L14.17 306.14" class="st12"/></g><g id="shape70-126" transform="translate(792.523,181.417) rotate(90)"><title>Sheet.70</title><path d="M0 306.14 L14.17 306.14" class="st12"/></g><g id="shape71-129" transform="translate(757.09,181.417) rotate(90)"><title>Sheet.71</title><path d="M0 306.14 L14.17 306.14" class="st12"/></g><g id="shape72-132" transform="translate(898.823,191.339) rotate(90)"><title>Sheet.72</title><desc>10x</desc><rect width="51.024" height="14.173" x="0" y="291.969" class="st3"/><text x="17.45" y="302.06" class="st4">10x</text></g><g id="shape73-135" transform="translate(863.435,191.339) rotate(90)"><title>Sheet.73</title><desc>1x</desc><rect width="51.024" height="14.173" x="0" y="291.969" class="st3"/><text x="20.23" y="302.06" class="st4">1x</text></g><g id="shape74-138" transform="translate(822.242,191.339) rotate(90)"><title>Sheet.74</title><desc>≈1/10x</desc><rect width="51.024" height="14.173" x="0" y="291.969" class="st3"/><text x="10.54" y="302.06" class="st4">≈1/10x</text></g><g id="shape75-141" transform="translate(785.208,191.339) rotate(90)"><title>Sheet.75</title><desc>&lt;1/100x</desc><rect width="51.024" height="14.173" x="0" y="291.969" class="st3"/><text x="7.58" y="302.06" class="st4">&lt;1/100x</text></g><g id="shape76-144" transform="translate(749.89,195.591) rotate(90)"><title>Sheet.76</title><desc>&lt;1/1000x</desc><rect width="55.331" height="14.173" x="0" y="291.969" class="st3"/><text x="6.95" y="302.06" class="st4">&lt;1/1000x</text></g><g id="shape77-147" transform="translate(940.279,184.252) rotate(90)"><title>Sheet.77</title><path d="M0 306.14 L14.17 306.14" class="st12"/></g><g id="shape78-150" transform="translate(933.193,194.173) rotate(90)"><title>Sheet.78</title><desc>&gt; 100x</desc><rect width="51.024" height="14.173" x="0" y="291.969" class="st3"/><text x="10.36" y="302.06" class="st4">&gt; 100x</text></g><g id="shape79-153" transform="translate(578.268,-178.583)"><title>Sheet.79</title><desc>POSIX arch</desc><rect width="39.776" height="28.346" x="0" y="277.795" class="st3"/><text x="4.6" y="288.97" class="st9">POSIX <tspan x="10.16" class="st6" dy="1.2em">arch</tspan></text></g><g id="shape80-157" transform="translate(439.37,-232.386)"><title>Sheet.80</title><desc>RTL sim.</desc><rect width="31.318" height="55.331" x="0" y="250.811" class="st3"/><text x="6.21" y="275.48" class="st9">RTL <tspan x="6.49" class="st6" dy="1.2em">sim</tspan>.</text></g><g id="shape82-161" transform="translate(496.063,-198.425)"><title>Sheet.82</title><desc>ISS</desc><rect width="31.318" height="28.346" x="0" y="277.795" class="st3"/><text x="7.6" y="294.97" class="st9">ISS</text></g><g id="shape60-164" transform="translate(462.002,-243.314)"><title>Sheet.60</title><desc>HW emu.</desc><ellipse cx="19.888" cy="283.232" class="st10" rx="19.888" ry="22.91"/><text x="11.56" y="280.23" class="st9">HW <tspan x="8.77" class="st6" dy="1.2em">emu</tspan>.</text></g><g id="shape84-168" transform="translate(558.379,-147.346)"><title>Sheet.84</title><desc>QEMU</desc><rect width="39.776" height="36.906" x="0" y="269.236" class="st3"/><text x="6.39" y="290.39" class="st17">QEMU</text></g><g id="shape85-171" transform="translate(240.945,-223.937)"><title>Sheet.85</title><desc>QEMU</desc><rect width="39.776" height="14.173" x="0" y="291.969" class="st3"/><text x="6.39" y="301.76" class="st17">QEMU</text></g><g id="shape88-174" transform="translate(646.299,-127.559)"><title>Sheet.88</title><desc>native_ posix</desc><rect width="64.616" height="28.346" x="0" y="277.795" class="st3"/><text x="16.19" y="288.97" class="st9">native_<tspan x="20.64" class="st6" dy="1.2em">posix</tspan></text></g><g id="shape89-178" transform="translate(302.18,-259.795)"><title>Sheet.89</title><desc>native_posix</desc><rect width="64.616" height="28.346" x="0" y="277.795" class="st3"/><text x="4.51" y="294.97" class="st9">native_posix</text></g><g id="shape90-181" transform="translate(287.819,-267.874)"><title>Sheet.90</title><ellipse cx="7.767" cy="299.055" class="st18" rx="7.767" ry="7.087"/></g><g id="shape91-183" transform="translate(641.934,-134.079)"><title>Sheet.91</title><ellipse cx="7.767" cy="299.055" class="st18" rx="7.767" ry="7.087"/></g><g id="shape92-185" transform="translate(218.222,-156.955)"><title>Sheet.92</title><desc>Dev. board</desc><rect width="39.776" height="28.346" x="0" y="277.795" class="st3"/><text x="10.64" y="289.27" class="st17">Dev. <tspan x="8.38" class="st6" dy="1.2em">board</tspan></text></g><g id="shape40-189" transform="translate(519.803,174.331) rotate(90)"><title>Sheet.40</title><path d="M0 306.14 L14.17 306.14" class="st12"/></g><g id="shape93-192" transform="translate(566.929,-263.622)"><title>Sheet.93</title><desc>Dev board</desc><rect width="39.776" height="28.346" x="0" y="277.795" class="st3"/><text x="11.89" y="289.27" class="st17">Dev <tspan x="8.38" class="st6" dy="1.2em">board</tspan></text></g></g></svg>